# xmcd
#
# Track frame offsets:
#      150
#      16957
#      31293
#      44927
#      58260
#      71735
#      87472
#      101939
#      117852
#      131099
#      144404
#      160117
#      174492
#      186442
#      200132
#      217452
#      234042
#      248607
#      263852
#      278204
# 
# Disc length: 3888 seconds
#
# Revision: 2
# Processed by: cddbd v1.4PL0 Copyright (c) Steve Scherf et al.
#
# Submitted via: FreeRIP 1.20
#
DISCID=3b0f2e14
DTITLE=João Mineiro e Marciano - As 20 Mais
DYEAR=1900
DGENRE=Sertanejo
TTITLE0=Seu Amor Ainda é Tudo
TTITLE1=Ainda Ontem Chorei de Saudade
TTITLE2=Crises de Amor
TTITLE3=Amor e Amizade
TTITLE4=Esta Noite Como Lembrança
TTITLE5=Amantes e Amigos
TTITLE6=A Bailarina
TTITLE7=As Paredes Azuis
TTITLE8=Telefone Mais
TTITLE9=Pare Com Isso
TTITLE10=Caminhão é Assim
TTITLE11=Meu Desespero (A Tabela)
TTITLE12=Whisky Com Gelo
TTITLE13=Aline
TTITLE14=Amor Clandestino
TTITLE15=Benzadeus
TTITLE16=Desconhecida
TTITLE17=No Mesmo Lugar
TTITLE18=A Pretendida
TTITLE19=Minha Serenata
EXTD=
EXTT0=
EXTT1=
EXTT2=
EXTT3=
EXTT4=
EXTT5=
EXTT6=
EXTT7=
EXTT8=
EXTT9=
EXTT10=
EXTT11=
EXTT12=
EXTT13=
EXTT14=
EXTT15=
EXTT16=
EXTT17=
EXTT18=
EXTT19=
PLAYORDER=
